<?xml version="1.0" encoding="UTF-8"?>
<!DOCTYPE svg PUBLIC "-//W3C//DTD SVG 1.1//EN" "http://www.w3.org/Graphics/SVG/1.1/DTD/svg11.dtd">
<svg xmlns="http://www.w3.org/2000/svg" version="1.1" width="200px" height="200px" style="shape-rendering:geometricPrecision; text-rendering:geometricPrecision; image-rendering:optimizeQuality; fill-rule:evenodd; clip-rule:evenodd" xmlns:xlink="http://www.w3.org/1999/xlink">
<g><path style="opacity:0.93" fill="#000000" d="M 95.5,11.5 C 115.336,12.5117 121.503,22.1784 114,40.5C 112.062,43.1059 109.562,44.9392 106.5,46C 118.167,46.3333 129.833,46.6667 141.5,47C 163.781,54.3567 173.281,69.8567 170,93.5C 173.667,97.1667 177.333,100.833 181,104.5C 181.667,112.833 181.667,121.167 181,129.5C 177.667,132.833 174.333,136.167 171,139.5C 173.754,159.983 166.254,175.15 148.5,185C 145.529,185.794 142.529,186.461 139.5,187C 112.833,187.667 86.1667,187.667 59.5,187C 43.8962,184.064 34.0628,174.897 30,159.5C 29.6667,153.167 29.3333,146.833 29,140.5C 25.3333,136.833 21.6667,133.167 18,129.5C 17.3333,121.167 17.3333,112.833 18,104.5C 21.6667,100.833 25.3333,97.1667 29,93.5C 25.7189,69.8567 35.2189,54.3567 57.5,47C 69.1667,46.6667 80.8333,46.3333 92.5,46C 81.8638,39.7562 79.0305,30.9229 84,19.5C 87.1496,15.6893 90.983,13.0226 95.5,11.5 Z M 58.5,59.5 C 85.8354,59.3334 113.169,59.5 140.5,60C 149.434,62.6008 154.934,68.4341 157,77.5C 157.667,104.167 157.667,130.833 157,157.5C 153.929,167.634 147.096,173.468 136.5,175C 111.833,175.667 87.1667,175.667 62.5,175C 51.6793,173.847 44.846,168.013 42,157.5C 41.3333,130.833 41.3333,104.167 42,77.5C 44.2531,68.4176 49.7531,62.4176 58.5,59.5 Z M 71.5,94.5 C 83.6263,93.4529 88.4596,98.7862 86,110.5C 81.0339,117.24 75.0339,118.24 68,113.5C 63.77,105.97 64.9366,99.6362 71.5,94.5 Z M 118.5,94.5 C 129.989,93.1551 134.823,98.1551 133,109.5C 130.27,116.053 125.437,118.22 118.5,116C 109.316,108.856 109.316,101.689 118.5,94.5 Z"/></g>
<g><path style="opacity:0.924" fill="#000000" d="M 73.5,81.5 C 85.8909,81.5706 94.5575,87.2372 99.5,98.5C 107.721,82.2595 120.054,78.0929 136.5,86C 145.996,93.4902 148.829,102.99 145,114.5C 136.494,128.888 124.661,132.388 109.5,125C 104.51,122.175 101.177,118.008 99.5,112.5C 92.6869,126.569 81.6869,131.402 66.5,127C 52.3288,118.816 48.8288,107.316 56,92.5C 60.5938,86.632 66.4271,82.9654 73.5,81.5 Z M 71.5,94.5 C 64.9366,99.6362 63.77,105.97 68,113.5C 75.0339,118.24 81.0339,117.24 86,110.5C 88.4596,98.7862 83.6263,93.4529 71.5,94.5 Z M 118.5,94.5 C 109.316,101.689 109.316,108.856 118.5,116C 125.437,118.22 130.27,116.053 133,109.5C 134.823,98.1551 129.989,93.1551 118.5,94.5 Z"/></g>
<g><path style="opacity:0.903" fill="#000000" d="M 76.5,134.5 C 83.6797,139.951 91.8464,142.951 101,143.5C 108.873,142.812 115.706,139.812 121.5,134.5C 124.5,136.833 127.167,139.5 129.5,142.5C 124.997,148.59 118.997,152.423 111.5,154C 95.1408,157.994 80.8075,154.327 68.5,143C 71.3714,140.297 74.0381,137.464 76.5,134.5 Z"/></g>
</svg>
