<?xml version="1.0" encoding="UTF-8"?>
<!DOCTYPE svg PUBLIC "-//W3C//DTD SVG 1.1//EN" "http://www.w3.org/Graphics/SVG/1.1/DTD/svg11.dtd">
<svg xmlns="http://www.w3.org/2000/svg" version="1.1" width="200px" height="200px" style="shape-rendering:geometricPrecision; text-rendering:geometricPrecision; image-rendering:optimizeQuality; fill-rule:evenodd; clip-rule:evenodd" xmlns:xlink="http://www.w3.org/1999/xlink">
<g><path style="opacity:0.882" fill="#000000" d="M 16.5,40.5 C 71.8343,40.3333 127.168,40.5 182.5,41C 184.378,42.5429 185.878,44.3762 187,46.5C 187.667,74.5 187.667,102.5 187,130.5C 186.226,132.939 184.726,134.773 182.5,136C 176.577,137.304 170.577,137.804 164.5,137.5C 164.714,139.144 164.38,140.644 163.5,142C 155.147,142.168 146.813,142.668 138.5,143.5C 139.149,150.138 142.315,155.138 148,158.5C 148.738,161.212 148.071,163.545 146,165.5C 136.881,160.601 132.381,152.934 132.5,142.5C 122.5,142.5 112.5,142.5 102.5,142.5C 102.5,149.167 102.5,155.833 102.5,162.5C 100.167,162.5 97.8333,162.5 95.5,162.5C 95.5,155.833 95.5,149.167 95.5,142.5C 86.8333,142.5 78.1667,142.5 69.5,142.5C 69.8169,152.878 65.3169,160.212 56,164.5C 54.4801,163.303 53.3134,161.803 52.5,160C 59.0387,156.425 62.7053,150.925 63.5,143.5C 54.1845,142.668 44.8511,142.168 35.5,142C 34.6198,140.644 34.2865,139.144 34.5,137.5C 27.6086,138.099 20.942,137.265 14.5,135C 13.1068,133.829 12.2735,132.329 12,130.5C 11.3333,102.833 11.3333,75.1667 12,47.5C 12.9042,44.7666 14.4042,42.4333 16.5,40.5 Z M 19.5,46.5 C 72.8753,46.1711 126.209,46.5045 179.5,47.5C 180.667,74.8272 180.833,102.161 180,129.5C 174.928,130.471 169.762,130.805 164.5,130.5C 164.789,126.894 164.456,123.394 163.5,120C 120.833,119.333 78.1667,119.333 35.5,120C 34.5442,123.394 34.2108,126.894 34.5,130.5C 29.2384,130.805 24.0717,130.471 19,129.5C 18.1761,101.761 18.3427,74.0947 19.5,46.5 Z M 48.5,69.5 C 55.1465,68.9698 57.4799,71.8031 55.5,78C 47.2555,80.3875 44.9221,77.5542 48.5,69.5 Z M 85.5,71.5 C 109.833,71.5 134.167,71.5 158.5,71.5C 158.5,73.5 158.5,75.5 158.5,77.5C 134.167,77.5 109.833,77.5 85.5,77.5C 85.5,75.5 85.5,73.5 85.5,71.5 Z M 40.5,125.5 C 79.8333,125.5 119.167,125.5 158.5,125.5C 158.5,129.167 158.5,132.833 158.5,136.5C 151.833,136.5 145.167,136.5 138.5,136.5C 138.5,133.5 138.5,130.5 138.5,127.5C 136.5,127.5 134.5,127.5 132.5,127.5C 132.037,130.482 131.704,133.482 131.5,136.5C 121.833,136.5 112.167,136.5 102.5,136.5C 102.5,133.5 102.5,130.5 102.5,127.5C 100.208,127.244 98.0408,127.577 96,128.5C 95.5026,131.146 95.3359,133.813 95.5,136.5C 87.1667,136.5 78.8333,136.5 70.5,136.5C 69.8413,133.545 69.5079,130.545 69.5,127.5C 67.5,127.5 65.5,127.5 63.5,127.5C 63.5,130.5 63.5,133.5 63.5,136.5C 55.8333,136.5 48.1667,136.5 40.5,136.5C 40.5,132.833 40.5,129.167 40.5,125.5 Z"/></g>
<g><path style="opacity:0.862" fill="#000000" d="M 50.5,62.5 C 62.9054,65.3283 65.9054,72.1617 59.5,83C 49.6335,88.5967 42.9668,85.9301 39.5,75C 40.315,68.1393 43.9816,63.9727 50.5,62.5 Z M 48.5,69.5 C 44.9221,77.5542 47.2555,80.3875 55.5,78C 57.4799,71.8031 55.1465,68.9698 48.5,69.5 Z"/></g>
<g><path style="opacity:0.881" fill="#000000" d="M 80.5,65.5 C 108.169,65.3334 135.835,65.5 163.5,66C 164.807,71.7787 164.807,77.612 163.5,83.5C 135.876,84.6578 108.209,84.8245 80.5,84C 79.2253,77.8643 79.2253,71.6976 80.5,65.5 Z M 85.5,71.5 C 85.5,73.5 85.5,75.5 85.5,77.5C 109.833,77.5 134.167,77.5 158.5,77.5C 158.5,75.5 158.5,73.5 158.5,71.5C 134.167,71.5 109.833,71.5 85.5,71.5 Z"/></g>
<g><path style="opacity:0.936" fill="#000000" d="M 35.5,98.5 C 78.1667,98.5 120.833,98.5 163.5,98.5C 163.5,100.5 163.5,102.5 163.5,104.5C 120.833,104.5 78.1667,104.5 35.5,104.5C 35.5,102.5 35.5,100.5 35.5,98.5 Z"/></g>
</svg>
