<?xml version="1.0" encoding="UTF-8"?>
<!DOCTYPE svg PUBLIC "-//W3C//DTD SVG 1.1//EN" "http://www.w3.org/Graphics/SVG/1.1/DTD/svg11.dtd">
<svg xmlns="http://www.w3.org/2000/svg" version="1.1" width="24px" height="24px" style="shape-rendering:geometricPrecision; text-rendering:geometricPrecision; image-rendering:optimizeQuality; fill-rule:evenodd; clip-rule:evenodd" xmlns:xlink="http://www.w3.org/1999/xlink">
<g><path style="opacity:0.699" fill="#7f807f" d="M 12.5,23.5 C 12.1667,23.5 11.8333,23.5 11.5,23.5C 2.61378,19.3636 -0.386221,12.5303 2.5,3C 5.45573,2.01104 8.45573,1.17771 11.5,0.5C 14.5443,1.17771 17.5443,2.01104 20.5,3C 22.9937,11.8461 20.3271,18.6794 12.5,23.5 Z M 10.5,2.5 C 13.4606,3.32336 16.4606,3.99003 19.5,4.5C 20.8015,11.9811 18.1348,17.3144 11.5,20.5C 4.86519,17.3144 2.19853,11.9811 3.5,4.5C 6.15216,4.59047 8.48549,3.92381 10.5,2.5 Z"/></g>
<g><path style="opacity:0.638" fill="#7f807f" d="M 15.5,7.5 C 17.0281,7.51731 17.5281,8.18398 17,9.5C 14.9835,11.684 12.8169,13.684 10.5,15.5C 8.68415,14.1851 7.01748,12.6851 5.5,11C 6,10.5 6.5,10 7,9.5C 10.5093,13.2842 13.3427,12.6175 15.5,7.5 Z"/></g>
</svg>
