<?xml version="1.0" encoding="UTF-8"?>
<!DOCTYPE svg PUBLIC "-//W3C//DTD SVG 1.1//EN" "http://www.w3.org/Graphics/SVG/1.1/DTD/svg11.dtd">
<svg xmlns="http://www.w3.org/2000/svg" version="1.1" width="200px" height="200px" style="shape-rendering:geometricPrecision; text-rendering:geometricPrecision; image-rendering:optimizeQuality; fill-rule:evenodd; clip-rule:evenodd" xmlns:xlink="http://www.w3.org/1999/xlink">
<g><path style="opacity:0.953" fill="#000000" d="M 60.5,14.5 C 69.0887,15.3426 72.5887,20.0092 71,28.5C 63.8645,36.6365 56.3645,44.4698 48.5,52C 76.5348,52.0515 104.535,52.7182 132.5,54C 164.555,63.3866 181.888,84.7199 184.5,118C 181.158,155.676 160.825,177.676 123.5,184C 89.5,184.667 55.5,184.667 21.5,184C 15.3189,180.788 13.4856,175.954 16,169.5C 17.6374,167.19 19.804,165.69 22.5,165C 58.2055,164.967 93.8722,164.301 129.5,163C 150.948,156.1 162.615,141.433 164.5,119C 162.525,92.0631 148.192,76.3964 121.5,72C 97.1667,71.3333 72.8333,71.3333 48.5,72C 56.3645,79.5302 63.8645,87.3635 71,95.5C 73.0269,103.453 70.0269,108.12 62,109.5C 59.6793,109.091 57.5126,108.257 55.5,107C 42.6667,94.1667 29.8333,81.3333 17,68.5C 13.6667,64.1667 13.6667,59.8333 17,55.5C 29.8333,42.6667 42.6667,29.8333 55.5,17C 57.3146,16.2432 58.9812,15.4098 60.5,14.5 Z"/></g>
</svg>
