<?xml version="1.0" encoding="UTF-8"?>
<!DOCTYPE svg PUBLIC "-//W3C//DTD SVG 1.1//EN" "http://www.w3.org/Graphics/SVG/1.1/DTD/svg11.dtd">
<svg xmlns="http://www.w3.org/2000/svg" version="1.1" width="200px" height="200px" style="shape-rendering:geometricPrecision; text-rendering:geometricPrecision; image-rendering:optimizeQuality; fill-rule:evenodd; clip-rule:evenodd" xmlns:xlink="http://www.w3.org/1999/xlink">
<g><path style="opacity:0.927" fill="#000000" d="M 88.5,-0.5 C 95.8333,-0.5 103.167,-0.5 110.5,-0.5C 143.863,8.0366 163.697,29.3699 170,63.5C 171.166,85.1556 172,106.822 172.5,128.5C 186.437,125.955 195.437,131.288 199.5,144.5C 199.5,146.5 199.5,148.5 199.5,150.5C 197.347,158.818 192.014,163.985 183.5,166C 166.503,166.5 149.503,166.667 132.5,166.5C 131.229,183.394 122.563,194.394 106.5,199.5C 101.167,199.5 95.8333,199.5 90.5,199.5C 75.0608,194.041 66.7275,183.041 65.5,166.5C 48.4967,166.667 31.4967,166.5 14.5,166C 7.19081,164.518 2.19081,160.351 -0.5,153.5C -0.5,149.833 -0.5,146.167 -0.5,142.5C 4.56286,130.798 13.5629,126.131 26.5,128.5C 26.3334,108.831 26.5,89.1638 27,69.5C 30.7355,31.2733 51.2355,7.94001 88.5,-0.5 Z M 90.5,12.5 C 124.898,11.2879 146.731,27.2879 156,60.5C 157.677,86.1397 159.011,111.806 160,137.5C 160.5,139.333 161.667,140.5 163.5,141C 169.833,141.333 176.167,141.667 182.5,142C 186.01,145.048 186.343,148.381 183.5,152C 127.5,152.667 71.5,152.667 15.5,152C 11.5,148.667 11.5,145.333 15.5,142C 21.8333,141.667 28.1667,141.333 34.5,141C 36.3289,140.727 37.8289,139.893 39,138.5C 40.3053,113.563 40.9719,88.5625 41,63.5C 46.5938,35.7416 63.0938,18.7416 90.5,12.5 Z M 78.5,165.5 C 91.8333,165.5 105.167,165.5 118.5,165.5C 118.055,178.281 111.389,185.281 98.5,186.5C 86.3452,184.679 79.6786,177.679 78.5,165.5 Z"/></g>
</svg>
