<?xml version="1.0" encoding="UTF-8"?>
<!DOCTYPE svg PUBLIC "-//W3C//DTD SVG 1.1//EN" "http://www.w3.org/Graphics/SVG/1.1/DTD/svg11.dtd">
<svg xmlns="http://www.w3.org/2000/svg" version="1.1" width="24px" height="24px" style="shape-rendering:geometricPrecision; text-rendering:geometricPrecision; image-rendering:optimizeQuality; fill-rule:evenodd; clip-rule:evenodd" xmlns:xlink="http://www.w3.org/1999/xlink">
<g><path style="opacity:0.675" fill="#7f807f" d="M 3.5,2.5 C 7.44539,1.57266 10.1121,2.90599 11.5,6.5C 9.7372,9.78892 10.5705,12.1223 14,13.5C 17.7662,11.123 20.2662,12.2897 21.5,17C 20.5572,19.9809 18.5572,20.9809 15.5,20C 6.8261,17.1017 2.8261,11.2684 3.5,2.5 Z M 9.5,13.5 C 7.35799,11.2346 5.69132,8.56796 4.5,5.5C 5.68884,4.57131 7.02218,4.23798 8.5,4.5C 8.71351,6.14387 8.38017,7.64387 7.5,9C 8.58218,10.3297 9.24885,11.8297 9.5,13.5 Z M 12.5,15.5 C 14.4352,14.8505 16.4352,14.5172 18.5,14.5C 18.762,15.9778 18.4287,17.3112 17.5,18.5C 15.6036,17.7255 13.937,16.7255 12.5,15.5 Z"/></g>
</svg>
