<?xml version="1.0" encoding="UTF-8"?>
<!DOCTYPE svg PUBLIC "-//W3C//DTD SVG 1.1//EN" "http://www.w3.org/Graphics/SVG/1.1/DTD/svg11.dtd">
<svg xmlns="http://www.w3.org/2000/svg" version="1.1" width="200px" height="200px" style="shape-rendering:geometricPrecision; text-rendering:geometricPrecision; image-rendering:optimizeQuality; fill-rule:evenodd; clip-rule:evenodd" xmlns:xlink="http://www.w3.org/1999/xlink">
<g><path style="opacity:0.935" fill="#000000" d="M 74.5,13.5 C 95.2585,13.0232 115.925,13.5232 136.5,15C 138.922,17.0027 139.755,19.5027 139,22.5C 132.735,37.7934 126.569,53.1267 120.5,68.5C 132.486,69.3326 144.486,69.8326 156.5,70C 160.046,70.7133 162.046,72.8799 162.5,76.5C 161.639,79.5273 160.139,82.194 158,84.5C 129.333,117.167 100.667,149.833 72,182.5C 65.9999,187.294 61.8332,186.128 59.5,179C 64.9734,157.585 70.6401,136.252 76.5,115C 64.5,114.667 52.5,114.333 40.5,114C 37.9655,112.799 36.6321,110.799 36.5,108C 47.8534,77.4571 59.3534,46.9571 71,16.5C 72.1451,15.3636 73.3117,14.3636 74.5,13.5 Z M 80.5,27.5 C 94.5159,27.1674 108.516,27.5008 122.5,28.5C 116.333,43.5 110.167,58.5 104,73.5C 102.465,78.2607 103.965,81.4273 108.5,83C 119.167,83.3333 129.833,83.6667 140.5,84C 120.667,106.5 100.833,129 81,151.5C 84.0867,136.984 87.5867,122.484 91.5,108C 91.2971,105.594 90.2971,103.594 88.5,102C 76.8381,101.5 65.1714,101.333 53.5,101.5C 62.5,76.8333 71.5,52.1667 80.5,27.5 Z"/></g>
</svg>
