<?xml version="1.0" encoding="UTF-8"?>
<!DOCTYPE svg PUBLIC "-//W3C//DTD SVG 1.1//EN" "http://www.w3.org/Graphics/SVG/1.1/DTD/svg11.dtd">
<svg xmlns="http://www.w3.org/2000/svg" version="1.1" width="200px" height="200px" style="shape-rendering:geometricPrecision; text-rendering:geometricPrecision; image-rendering:optimizeQuality; fill-rule:evenodd; clip-rule:evenodd" xmlns:xlink="http://www.w3.org/1999/xlink">
<g><path style="opacity:0.943" fill="#000000" d="M 96.5,-0.5 C 98.1667,-0.5 99.8333,-0.5 101.5,-0.5C 151.029,4.1909 182.529,30.5242 196,78.5C 203.182,121.946 189.016,156.446 153.5,182C 114.836,204.72 76.8356,203.72 39.5,179C 15.8343,160.499 2.50092,136.333 -0.5,106.5C -0.5,101.833 -0.5,97.1667 -0.5,92.5C 8.02909,36.637 40.3624,5.63702 96.5,-0.5 Z M 88.5,15.5 C 133.24,13.7707 163.406,33.7707 179,75.5C 188.587,121.154 172.754,154.654 131.5,176C 87.1923,190.676 52.0256,178.843 26,140.5C 7.01367,100.244 13.5137,64.7444 45.5,34C 58.2854,24.0232 72.6187,17.8565 88.5,15.5 Z"/></g>
<g><path style="opacity:0.961" fill="#000000" d="M 116.5,38.5 C 124.598,37.967 131.431,40.6336 137,46.5C 139.905,51.6512 140.238,56.9845 138,62.5C 132.748,70.6676 127.748,79.0009 123,87.5C 116.053,94.1442 109.053,94.1442 102,87.5C 100.128,84.7946 99.2952,81.7946 99.5,78.5C 101.525,68.0679 104.025,57.7346 107,47.5C 109.256,43.47 112.422,40.47 116.5,38.5 Z"/></g>
<g><path style="opacity:0.959" fill="#000000" d="M 47.5,88.5 C 58.1497,89.399 68.8164,90.2323 79.5,91C 89.0334,94.9134 91.8667,101.747 88,111.5C 86.0616,114.106 83.5616,115.939 80.5,117C 70.3333,119.167 60.1667,121.333 50,123.5C 43.3415,122.847 38.6748,119.514 36,113.5C 32.3985,101.384 36.2318,93.0503 47.5,88.5 Z"/></g>
<g><path style="opacity:0.897" fill="#000000" d="M 100.5,93.5 C 106.706,93.4321 110.373,96.4321 111.5,102.5C 109.085,110.44 104.085,112.607 96.5,109C 92.4255,102.396 93.7589,97.229 100.5,93.5 Z"/></g>
<g><path style="opacity:0.954" fill="#000000" d="M 110.5,111.5 C 115.121,110.993 119.454,111.826 123.5,114C 130.938,122.382 137.771,131.215 144,140.5C 146.417,150.827 142.583,157.994 132.5,162C 124.217,165.017 117.717,162.85 113,155.5C 108.731,145.469 104.898,135.302 101.5,125C 101.661,118.489 104.661,113.989 110.5,111.5 Z"/></g>
</svg>
