<?xml version="1.0" encoding="UTF-8"?>
<!DOCTYPE svg PUBLIC "-//W3C//DTD SVG 1.1//EN" "http://www.w3.org/Graphics/SVG/1.1/DTD/svg11.dtd">
<svg xmlns="http://www.w3.org/2000/svg" version="1.1" width="1024px" height="1024px" style="shape-rendering:geometricPrecision; text-rendering:geometricPrecision; image-rendering:optimizeQuality; fill-rule:evenodd; clip-rule:evenodd" xmlns:xlink="http://www.w3.org/1999/xlink">
<g><path style="opacity:0.747" fill="#fefffe" d="M 318.5,283.5 C 365.168,283.333 411.835,283.5 458.5,284C 476.667,288.833 488.167,300.333 493,318.5C 493.667,365.167 493.667,411.833 493,458.5C 488.167,476.667 476.667,488.167 458.5,493C 411.833,493.667 365.167,493.667 318.5,493C 300.333,488.167 288.833,476.667 284,458.5C 283.333,411.833 283.333,365.167 284,318.5C 289.016,300.318 300.516,288.652 318.5,283.5 Z"/></g>
<g><path style="opacity:0.747" fill="#fefffe" d="M 564.5,283.5 C 611.168,283.333 657.835,283.5 704.5,284C 722.667,288.833 734.167,300.333 739,318.5C 739.667,365.167 739.667,411.833 739,458.5C 734.167,476.667 722.667,488.167 704.5,493C 657.833,493.667 611.167,493.667 564.5,493C 546.333,488.167 534.833,476.667 530,458.5C 529.333,411.833 529.333,365.167 530,318.5C 535.016,300.318 546.516,288.652 564.5,283.5 Z"/></g>
<g><path style="opacity:0.747" fill="#fefffe" d="M 318.5,529.5 C 365.168,529.333 411.835,529.5 458.5,530C 476.64,534.807 488.14,546.307 493,564.5C 493.667,611.167 493.667,657.833 493,704.5C 488.167,722.667 476.667,734.167 458.5,739C 411.833,739.667 365.167,739.667 318.5,739C 300.333,734.167 288.833,722.667 284,704.5C 283.333,657.833 283.333,611.167 284,564.5C 289.042,546.292 300.542,534.625 318.5,529.5 Z"/></g>
<g><path style="opacity:0.501" fill="#fefffe" d="M 564.5,529.5 C 611.168,529.333 657.835,529.5 704.5,530C 722.64,534.807 734.14,546.307 739,564.5C 739.667,611.167 739.667,657.833 739,704.5C 734.167,722.667 722.667,734.167 704.5,739C 657.833,739.667 611.167,739.667 564.5,739C 546.333,734.167 534.833,722.667 530,704.5C 529.333,657.833 529.333,611.167 530,564.5C 535.042,546.292 546.542,534.625 564.5,529.5 Z"/></g>
</svg>
