<?xml version="1.0" encoding="UTF-8"?>
<!DOCTYPE svg PUBLIC "-//W3C//DTD SVG 1.1//EN" "http://www.w3.org/Graphics/SVG/1.1/DTD/svg11.dtd">
<svg xmlns="http://www.w3.org/2000/svg" version="1.1" width="24px" height="24px" style="shape-rendering:geometricPrecision; text-rendering:geometricPrecision; image-rendering:optimizeQuality; fill-rule:evenodd; clip-rule:evenodd" xmlns:xlink="http://www.w3.org/1999/xlink">
<g><path style="opacity:0.683" fill="#7f807f" d="M 3.5,5.5 C 5.19919,5.33982 6.86586,5.50649 8.5,6C 11.0482,8.88513 13.8815,11.3851 17,13.5C 21.4351,11.9398 21.6018,9.9398 17.5,7.5C 15.6892,9.16156 14.0225,9.32822 12.5,8C 15.9477,4.49699 19.1143,4.66366 22,8.5C 22.6674,14.1611 20.1674,16.3277 14.5,15C 11.9518,12.1149 9.11848,9.61487 6,7.5C 1.49771,9.36567 1.49771,11.3657 6,13.5C 7.26131,13.2409 8.26131,12.5742 9,11.5C 10.8241,12.7487 10.6574,13.9153 8.5,15C 4.16812,16.3363 1.50146,14.8363 0.5,10.5C 0.757317,8.30755 1.75732,6.64089 3.5,5.5 Z"/></g>
</svg>
