<?xml version="1.0" encoding="UTF-8"?>
<!DOCTYPE svg PUBLIC "-//W3C//DTD SVG 1.1//EN" "http://www.w3.org/Graphics/SVG/1.1/DTD/svg11.dtd">
<svg xmlns="http://www.w3.org/2000/svg" version="1.1" width="200px" height="200px" style="shape-rendering:geometricPrecision; text-rendering:geometricPrecision; image-rendering:optimizeQuality; fill-rule:evenodd; clip-rule:evenodd" xmlns:xlink="http://www.w3.org/1999/xlink">
<g><path style="opacity:0.926" fill="#000000" d="M 97.5,17.5 C 118.097,18.0467 132.597,27.7134 141,46.5C 147.919,75.5008 137.419,95.0008 109.5,105C 90.5974,108.254 75.0974,102.421 63,87.5C 50.3961,64.1926 53.8961,43.6926 73.5,26C 81.0084,21.4437 89.0084,18.6104 97.5,17.5 Z M 93.5,31.5 C 113.506,30.0163 125.673,39.0163 130,58.5C 129.024,81.8083 116.857,92.9749 93.5,92C 72.0728,84.5675 64.9061,70.0675 72,48.5C 76.7151,39.6064 83.8818,33.9397 93.5,31.5 Z"/></g>
<g><path style="opacity:0.916" fill="#000000" d="M 91.5,117.5 C 110.762,116.603 129.429,119.437 147.5,126C 170.404,136.309 179.737,153.809 175.5,178.5C 174.335,179.584 173.002,180.417 171.5,181C 123.5,181.667 75.5,181.667 27.5,181C 25.508,180.426 24.008,179.259 23,177.5C 19.5691,154.194 28.4025,137.361 49.5,127C 63.1219,121.57 77.1219,118.404 91.5,117.5 Z M 86.5,131.5 C 104.176,130.295 121.509,132.129 138.5,137C 148.479,140.326 155.979,146.493 161,155.5C 162.772,159.313 163.605,163.313 163.5,167.5C 120.833,167.5 78.1667,167.5 35.5,167.5C 35.6458,157.709 39.6458,149.875 47.5,144C 59.6616,136.883 72.6616,132.716 86.5,131.5 Z"/></g>
</svg>
