<?xml version="1.0" encoding="UTF-8"?>
<!DOCTYPE svg PUBLIC "-//W3C//DTD SVG 1.1//EN" "http://www.w3.org/Graphics/SVG/1.1/DTD/svg11.dtd">
<svg xmlns="http://www.w3.org/2000/svg" version="1.1" width="200px" height="200px" style="shape-rendering:geometricPrecision; text-rendering:geometricPrecision; image-rendering:optimizeQuality; fill-rule:evenodd; clip-rule:evenodd" xmlns:xlink="http://www.w3.org/1999/xlink">
<g><path style="opacity:0.928" fill="#000000" d="M 122.5,11.5 C 149.286,9.49316 169.119,20.1598 182,43.5C 193.634,74.9223 185.801,100.089 158.5,119C 144.729,125.76 130.396,127.26 115.5,123.5C 111.394,127.529 107.394,131.695 103.5,136C 98.2636,137.339 92.9302,137.839 87.5,137.5C 87.6662,143.842 87.4995,150.175 87,156.5C 85.1667,158.333 83.3333,160.167 81.5,162C 75.1754,162.5 68.8421,162.666 62.5,162.5C 62.6662,168.842 62.4995,175.175 62,181.5C 60.1667,183.333 58.3333,185.167 56.5,187C 43.5,187.667 30.5,187.667 17.5,187C 15.6667,185.167 13.8333,183.333 12,181.5C 11.0909,170.108 11.4243,158.775 13,147.5C 33.6667,126.833 54.3333,106.167 75,85.5C 68.4629,46.2447 84.2962,21.578 122.5,11.5 Z M 120.5,25.5 C 152.49,23.146 170.49,37.8126 174.5,69.5C 170.999,95.4998 156.166,109.833 130,112.5C 124.69,112.205 119.524,111.205 114.5,109.5C 112.205,110.432 109.871,111.265 107.5,112C 103.465,115.7 99.7981,119.7 96.5,124C 91.1667,124.333 85.8333,124.667 80.5,125C 78.6667,126.833 76.8333,128.667 75,130.5C 74.5005,136.825 74.3338,143.158 74.5,149.5C 67.825,149.334 61.1583,149.5 54.5,150C 53,151.5 51.5,153 50,154.5C 49.5004,161.158 49.3337,167.825 49.5,174.5C 41.5,174.5 33.5,174.5 25.5,174.5C 25.3337,167.825 25.5004,161.158 26,154.5C 47.0286,133.805 67.6953,112.805 88,91.5C 89.8189,86.4079 89.4856,81.4079 87,76.5C 85.6726,51.1257 96.8393,34.1257 120.5,25.5 Z"/></g>
<g><path style="opacity:0.912" fill="#000000" d="M 133.5,48.5 C 147.799,49.2647 152.632,56.2647 148,69.5C 138.612,77.162 130.945,75.8286 125,65.5C 123.615,57.6038 126.448,51.9371 133.5,48.5 Z"/></g>
</svg>
