<?xml version="1.0" encoding="UTF-8"?>
<!DOCTYPE svg PUBLIC "-//W3C//DTD SVG 1.1//EN" "http://www.w3.org/Graphics/SVG/1.1/DTD/svg11.dtd">
<svg xmlns="http://www.w3.org/2000/svg" version="1.1" width="200px" height="200px" style="shape-rendering:geometricPrecision; text-rendering:geometricPrecision; image-rendering:optimizeQuality; fill-rule:evenodd; clip-rule:evenodd" xmlns:xlink="http://www.w3.org/1999/xlink">
<g><path style="opacity:0.795" fill="#000000" d="M 97.5,18.5 C 100.056,18.1322 102.056,18.9655 103.5,21C 104.434,26.7849 104.768,32.6182 104.5,38.5C 139.631,43.6346 158.631,63.968 161.5,99.5C 161.432,103.814 159.765,107.314 156.5,110C 146.9,111.391 137.233,111.891 127.5,111.5C 123.795,133.194 111.128,141.694 89.5,137C 78.204,132.209 72.204,123.709 71.5,111.5C 61.767,111.891 52.1003,111.391 42.5,110C 39.2569,107.502 37.5902,104.168 37.5,100C 39.0143,72.4902 52.3476,53.1569 77.5,42C 83.0161,40.0371 88.6827,38.8704 94.5,38.5C 94.334,33.1563 94.5006,27.8229 95,22.5C 95.6622,21.0161 96.4955,19.6828 97.5,18.5 Z M 90.5,47.5 C 117.091,45.0411 136.257,55.7078 148,79.5C 150.781,86.5738 151.948,93.9071 151.5,101.5C 116.833,101.5 82.1667,101.5 47.5,101.5C 48.5738,72.7756 62.9071,54.7756 90.5,47.5 Z M 80.5,111.5 C 93.1667,111.5 105.833,111.5 118.5,111.5C 114.35,128.408 104.35,133.241 88.5,126C 83.8717,122.243 81.205,117.41 80.5,111.5 Z"/></g>
<g><path style="opacity:0.756" fill="#000000" d="M 77.5,63.5 C 80.6537,64.4739 81.6537,66.4739 80.5,69.5C 75.689,72.4775 71.689,76.3108 68.5,81C 62.9555,80.3723 62.1222,77.8723 66,73.5C 69.4351,69.5549 73.2685,66.2216 77.5,63.5 Z"/></g>
<g><path style="opacity:0.78" fill="#000000" d="M 46.5,124.5 C 55.5067,126.446 55.8401,129.946 47.5,135C 42.0141,136.825 39.5141,134.992 40,129.5C 41.9651,127.45 44.1318,125.783 46.5,124.5 Z"/></g>
<g><path style="opacity:0.774" fill="#000000" d="M 147.5,124.5 C 151.306,124.02 154.639,125.02 157.5,127.5C 159.938,129.656 160.105,131.989 158,134.5C 154.125,136.048 150.625,135.381 147.5,132.5C 144.848,129.799 144.848,127.132 147.5,124.5 Z"/></g>
<g><path style="opacity:0.771" fill="#000000" d="M 68.5,145.5 C 71.916,144.866 73.916,146.2 74.5,149.5C 74.1126,154.299 71.7793,157.632 67.5,159.5C 64.6976,159.029 63.3642,157.362 63.5,154.5C 63.9408,150.748 65.6075,147.748 68.5,145.5 Z"/></g>
<g><path style="opacity:0.77" fill="#000000" d="M 126.5,145.5 C 132.342,145.443 135.342,148.443 135.5,154.5C 134.002,160.249 131.169,160.916 127,156.5C 124.08,152.819 123.913,149.152 126.5,145.5 Z"/></g>
<g><path style="opacity:0.741" fill="#000000" d="M 97.5,153.5 C 100.547,152.855 102.713,153.855 104,156.5C 104.804,160.204 104.304,163.704 102.5,167C 96.7473,168.753 94.0806,166.586 94.5,160.5C 94.5487,157.666 95.5487,155.332 97.5,153.5 Z"/></g>
</svg>
