<?xml version="1.0" encoding="UTF-8"?>
<!DOCTYPE svg PUBLIC "-//W3C//DTD SVG 1.1//EN" "http://www.w3.org/Graphics/SVG/1.1/DTD/svg11.dtd">
<svg xmlns="http://www.w3.org/2000/svg" version="1.1" width="24px" height="24px" style="shape-rendering:geometricPrecision; text-rendering:geometricPrecision; image-rendering:optimizeQuality; fill-rule:evenodd; clip-rule:evenodd" xmlns:xlink="http://www.w3.org/1999/xlink">
<g><path style="opacity:0.686" fill="#7f807f" d="M 8.5,0.5 C 14.2956,-0.438804 17.9623,1.89453 19.5,7.5C 13.9374,21.7796 8.60409,21.7796 3.5,7.5C 4.06492,4.28424 5.73159,1.95091 8.5,0.5 Z M 9.5,2.5 C 16.5178,2.76951 18.3511,6.10285 15,12.5C 12.6667,16.5 10.3333,16.5 8,12.5C 5.73918,8.6537 6.23918,5.32037 9.5,2.5 Z M 10.5,6.5 C 12.4646,6.94835 12.7979,7.94835 11.5,9.5C 10.6143,8.67504 10.281,7.67504 10.5,6.5 Z"/></g>
<g><path style="opacity:0.648" fill="#7f807f" d="M 9.5,4.5 C 14.6511,4.65355 15.9845,6.82022 13.5,11C 8.17662,11.1802 6.84329,9.01355 9.5,4.5 Z M 10.5,6.5 C 10.281,7.67504 10.6143,8.67504 11.5,9.5C 12.7979,7.94835 12.4646,6.94835 10.5,6.5 Z"/></g>
<g><path style="opacity:0.641" fill="#7f807f" d="M 3.5,14.5 C 5.98648,15.9498 5.65314,17.1165 2.5,18C 8.5,20 14.5,20 20.5,18C 18.0958,17.4921 17.4291,16.3255 18.5,14.5C 23.2542,16.2185 23.5875,18.3852 19.5,21C 13.3798,22.9714 7.37983,22.638 1.5,20C 0.0803829,17.4264 0.74705,15.593 3.5,14.5 Z"/></g>
</svg>
