<?xml version="1.0" encoding="UTF-8"?>
<!DOCTYPE svg PUBLIC "-//W3C//DTD SVG 1.1//EN" "http://www.w3.org/Graphics/SVG/1.1/DTD/svg11.dtd">
<svg xmlns="http://www.w3.org/2000/svg" version="1.1" width="200px" height="200px" style="shape-rendering:geometricPrecision; text-rendering:geometricPrecision; image-rendering:optimizeQuality; fill-rule:evenodd; clip-rule:evenodd" xmlns:xlink="http://www.w3.org/1999/xlink">
<g><path style="opacity:0.955" fill="#000000" d="M 39.5,36.5 C 80.5608,36.017 121.561,36.517 162.5,38C 164.709,39.8734 166.542,42.04 168,44.5C 168.986,78.9184 168.653,113.252 167,147.5C 165.039,150.135 162.539,151.969 159.5,153C 145.833,153.333 132.167,153.667 118.5,154C 114.623,159.585 111.123,165.418 108,171.5C 102.333,175.5 96.6667,175.5 91,171.5C 87.8773,165.418 84.3773,159.585 80.5,154C 65.7655,153.95 51.0988,153.284 36.5,152C 34.2911,150.127 32.4578,147.96 31,145.5C 30.3333,111.833 30.3333,78.1667 31,44.5C 33.0982,40.8972 35.9315,38.2305 39.5,36.5 Z M 43.5,49.5 C 80.8333,49.5 118.167,49.5 155.5,49.5C 155.5,79.8333 155.5,110.167 155.5,140.5C 141.829,140.333 128.163,140.5 114.5,141C 107.184,144.818 102.184,150.651 99.5,158.5C 96.8158,150.651 91.8158,144.818 84.5,141C 70.8374,140.5 57.1707,140.333 43.5,140.5C 43.5,110.167 43.5,79.8333 43.5,49.5 Z"/></g>
<g><path style="opacity:0.906" fill="#000000" d="M 62.5,86.5 C 72.0242,86.5224 75.8576,91.189 74,100.5C 68.0474,108.476 62.0474,108.476 56,100.5C 54.3984,93.9717 56.5651,89.305 62.5,86.5 Z"/></g>
<g><path style="opacity:0.904" fill="#000000" d="M 97.5,86.5 C 107.134,87.2911 110.634,92.2911 108,101.5C 99.4563,108.817 93.2896,107.15 89.5,96.5C 90.3784,91.6324 93.045,88.299 97.5,86.5 Z"/></g>
<g><path style="opacity:0.901" fill="#000000" d="M 131.5,86.5 C 140.747,86.6436 144.581,91.3103 143,100.5C 137.047,108.476 131.047,108.476 125,100.5C 123.17,93.8316 125.337,89.1649 131.5,86.5 Z"/></g>
</svg>
