<?xml version="1.0" encoding="UTF-8"?>
<!DOCTYPE svg PUBLIC "-//W3C//DTD SVG 1.1//EN" "http://www.w3.org/Graphics/SVG/1.1/DTD/svg11.dtd">
<svg xmlns="http://www.w3.org/2000/svg" version="1.1" width="200px" height="200px" style="shape-rendering:geometricPrecision; text-rendering:geometricPrecision; image-rendering:optimizeQuality; fill-rule:evenodd; clip-rule:evenodd" xmlns:xlink="http://www.w3.org/1999/xlink">
<g><path style="opacity:0.922" fill="#000000" d="M 91.5,11.5 C 132.982,10.4801 162.815,28.4801 181,65.5C 194.57,104.662 186.404,138.495 156.5,167C 126.38,189.532 94.0462,193.199 59.5,178C 17.6129,152.375 3.44619,115.875 17,68.5C 31.0421,35.2799 55.8755,16.2799 91.5,11.5 Z M 92.5,23.5 C 126.789,22.2175 151.955,36.5508 168,66.5C 178.772,91.0206 177.772,115.021 165,138.5C 162.039,143.292 158.539,147.625 154.5,151.5C 149.109,136.108 139.109,124.775 124.5,117.5C 140.218,103.966 144.718,87.2995 138,67.5C 127.401,47.4519 110.901,39.6185 88.5,44C 68.8311,50.0119 58.4977,63.3453 57.5,84C 58.4882,97.9761 64.4882,109.309 75.5,118C 60.8262,125.173 50.4928,136.34 44.5,151.5C 20.6093,123.726 17.1093,93.3922 34,60.5C 47.8394,39.1664 67.3394,26.833 92.5,23.5 Z M 92.5,55.5 C 113.469,54.1425 125.469,63.8092 128.5,84.5C 126.611,99.5549 118.277,108.722 103.5,112C 84.1202,112.467 73.1202,102.967 70.5,83.5C 72.3421,69.6773 79.6754,60.344 92.5,55.5 Z M 92.5,125.5 C 118.795,124.333 135.795,136.167 143.5,161C 115.206,179.688 86.5391,180.188 57.5,162.5C 56.3977,159.81 56.5644,157.143 58,154.5C 64.5791,138.818 76.0791,129.151 92.5,125.5 Z"/></g>
</svg>
