<?xml version="1.0" encoding="UTF-8"?>
<!DOCTYPE svg PUBLIC "-//W3C//DTD SVG 1.1//EN" "http://www.w3.org/Graphics/SVG/1.1/DTD/svg11.dtd">
<svg xmlns="http://www.w3.org/2000/svg" version="1.1" width="200px" height="200px" style="shape-rendering:geometricPrecision; text-rendering:geometricPrecision; image-rendering:optimizeQuality; fill-rule:evenodd; clip-rule:evenodd" xmlns:xlink="http://www.w3.org/1999/xlink">
<g><path style="opacity:0.937" fill="#666666" d="M 25.5,-0.5 C 28.8333,-0.5 32.1667,-0.5 35.5,-0.5C 36.8484,0.60064 38.3484,1.60064 40,2.5C 50.5784,16.6567 60.9117,30.99 71,45.5C 72.8447,49.1906 72.8447,52.8573 71,56.5C 66.7002,61.8012 62.0336,66.8012 57,71.5C 58.1143,84.8368 62.781,96.8368 71,107.5C 77.8333,114.333 84.6667,121.167 91.5,128C 101.853,136.895 113.853,141.229 127.5,141C 131.866,136.299 136.533,131.966 141.5,128C 145.48,126.126 149.48,126.126 153.5,128C 169.607,138.625 184.94,150.125 199.5,162.5C 199.5,165.833 199.5,169.167 199.5,172.5C 192.433,181.073 184.766,189.239 176.5,197C 174.389,197.845 172.389,198.678 170.5,199.5C 161.833,199.5 153.167,199.5 144.5,199.5C 124.45,195.645 105.783,188.145 88.5,177C 51.8251,152.787 24.6584,120.621 7,80.5C 4.00421,71.5031 1.50421,62.5031 -0.5,53.5C -0.5,44.8333 -0.5,36.1667 -0.5,27.5C 0.321983,25.6115 1.15532,23.6115 2,21.5C 9.4277,13.567 17.261,6.23365 25.5,-0.5 Z M 28.5,20.5 C 32.5025,20.9713 35.6692,22.9713 38,26.5C 44.1389,33.1405 49.3056,40.4738 53.5,48.5C 49.1667,54.5 44.8333,60.5 40.5,66.5C 46.3142,97.7846 62.3142,122.285 88.5,140C 98.3101,147.239 108.977,152.906 120.5,157C 123.442,158.124 126.442,158.458 129.5,158C 134.5,153 139.5,148 144.5,143C 157.584,150.033 170.251,158.033 182.5,167C 178.872,173.957 173.872,179.623 167.5,184C 165.419,184.869 163.253,185.369 161,185.5C 135.837,182.891 112.67,174.724 91.5,161C 64.8826,143.051 43.0492,120.551 26,93.5C 15.5679,74.4829 11.2346,54.1495 13,32.5C 17.7839,27.8752 22.9506,23.8752 28.5,20.5 Z"/></g>
</svg>
