<?xml version="1.0" encoding="UTF-8"?>
<!DOCTYPE svg PUBLIC "-//W3C//DTD SVG 1.1//EN" "http://www.w3.org/Graphics/SVG/1.1/DTD/svg11.dtd">
<svg xmlns="http://www.w3.org/2000/svg" version="1.1" width="367px" height="200px" style="shape-rendering:geometricPrecision; text-rendering:geometricPrecision; image-rendering:optimizeQuality; fill-rule:evenodd; clip-rule:evenodd" xmlns:xlink="http://www.w3.org/1999/xlink">
<g><path style="opacity:0.944" fill="#202020" d="M 181.5,7.5 C 228.941,10.1204 259.441,34.1204 273,79.5C 274.442,86.0962 275.276,92.7629 275.5,99.5C 281.537,99.1707 287.537,99.5041 293.5,100.5C 284.256,115.906 274.423,130.906 264,145.5C 256.628,130.589 249.128,115.756 241.5,101C 247.491,100.501 253.491,100.334 259.5,100.5C 258.499,68.9827 244.166,45.8161 216.5,31C 187.436,18.6153 160.103,21.6153 134.5,40C 125.793,40.6324 122.627,36.7991 125,28.5C 141.654,15.4141 160.487,8.4141 181.5,7.5 Z"/></g>
<g><path style="opacity:0.944" fill="#202020" d="M 100.5,56.5 C 101.496,56.4142 102.329,56.7476 103,57.5C 110.396,71.6232 117.229,85.9566 123.5,100.5C 117.5,100.5 111.5,100.5 105.5,100.5C 109.062,143.561 132.062,169.061 174.5,177C 196.17,179.085 215.503,173.418 232.5,160C 242.408,159.313 245.242,163.479 241,172.5C 209.119,195.539 175.286,198.706 139.5,182C 108.217,163.951 91.8837,136.784 90.5,100.5C 84.4632,100.829 78.4632,100.496 72.5,99.5C 82.1032,85.2805 91.4365,70.9472 100.5,56.5 Z"/></g>
</svg>
