<?xml version="1.0" encoding="UTF-8"?>
<!DOCTYPE svg PUBLIC "-//W3C//DTD SVG 1.1//EN" "http://www.w3.org/Graphics/SVG/1.1/DTD/svg11.dtd">
<svg xmlns="http://www.w3.org/2000/svg" version="1.1" width="200px" height="200px" style="shape-rendering:geometricPrecision; text-rendering:geometricPrecision; image-rendering:optimizeQuality; fill-rule:evenodd; clip-rule:evenodd" xmlns:xlink="http://www.w3.org/1999/xlink">
<g><path style="opacity:0.749" fill="#262636" d="M 100.5,12.5 C 99.609,13.1098 98.609,13.4431 97.5,13.5C 98.221,11.6182 99.221,11.2848 100.5,12.5 Z"/></g>
<g><path style="opacity:0.981" fill="#262535" d="M 100.5,12.5 C 107.795,20.4949 116.795,25.9949 127.5,29C 140.948,32.4386 154.614,33.9386 168.5,33.5C 168.667,62.5019 168.5,91.5019 168,120.5C 165.602,137.131 158.102,150.964 145.5,162C 131.445,172.948 115.945,181.448 99,187.5C 77.7019,180.359 59.3685,168.692 44,152.5C 36.7403,143.061 32.407,132.395 31,120.5C 30.5,91.5019 30.3334,62.5019 30.5,33.5C 50.5898,34.82 69.5898,30.9867 87.5,22C 91.0905,19.3858 94.4238,16.5525 97.5,13.5C 98.609,13.4431 99.609,13.1098 100.5,12.5 Z M 98.5,27.5 C 116.422,38.9004 136.089,44.567 157.5,44.5C 157.667,69.1689 157.5,93.8356 157,118.5C 154.325,135.005 146.159,148.172 132.5,158C 122.102,164.867 111.102,170.7 99.5,175.5C 80.2597,168.813 64.093,157.813 51,142.5C 45.829,135.321 42.829,127.321 42,118.5C 41.5,93.8356 41.3334,69.1689 41.5,44.5C 59.5355,44.4606 76.5355,40.2939 92.5,32C 94.6838,30.6366 96.6838,29.1366 98.5,27.5 Z"/></g>
</svg>
