<?xml version="1.0" encoding="UTF-8"?>
<!DOCTYPE svg PUBLIC "-//W3C//DTD SVG 1.1//EN" "http://www.w3.org/Graphics/SVG/1.1/DTD/svg11.dtd">
<svg xmlns="http://www.w3.org/2000/svg" version="1.1" width="221px" height="200px" style="shape-rendering:geometricPrecision; text-rendering:geometricPrecision; image-rendering:optimizeQuality; fill-rule:evenodd; clip-rule:evenodd" xmlns:xlink="http://www.w3.org/1999/xlink">
<g><path style="opacity:0.95" fill="#000000" d="M 33.5,-0.5 C 84.5,-0.5 135.5,-0.5 186.5,-0.5C 186.527,36.7519 186.694,74.0852 187,111.5C 197.759,122.1 208.926,132.1 220.5,141.5C 220.5,160.5 220.5,179.5 220.5,198.5C 203.167,198.5 185.833,198.5 168.5,198.5C 168.5,176.5 168.5,154.5 168.5,132.5C 129.5,132.5 90.5,132.5 51.5,132.5C 51.6666,154.169 51.5,175.836 51,197.5C 33.9104,198.492 16.7437,198.825 -0.5,198.5C -0.5,179.833 -0.5,161.167 -0.5,142.5C 10.7967,132.372 21.9634,122.039 33,111.5C 33.5,74.1682 33.6667,36.8348 33.5,-0.5 Z M 51.5,16.5 C 90.5,16.5 129.5,16.5 168.5,16.5C 168.665,19.8499 168.498,23.1832 168,26.5C 163.5,31 159,35.5 154.5,40C 159.155,40.4992 163.821,40.6658 168.5,40.5C 168.5,58.1667 168.5,75.8333 168.5,93.5C 129.5,93.5 90.5,93.5 51.5,93.5C 51.3334,74.8304 51.5001,56.1637 52,37.5C 56.8333,32.6667 61.6667,27.8333 66.5,23C 61.5111,22.5007 56.5111,22.3341 51.5,22.5C 51.5,20.5 51.5,18.5 51.5,16.5 Z M 51.5,108.5 C 90.5,108.5 129.5,108.5 168.5,108.5C 168.5,110.833 168.5,113.167 168.5,115.5C 129.5,115.5 90.5,115.5 51.5,115.5C 51.5,113.167 51.5,110.833 51.5,108.5 Z M 32.5,135.5 C 33.4961,150.324 33.8294,165.324 33.5,180.5C 27.8333,180.5 22.1667,180.5 16.5,180.5C 16.1681,170.145 16.5014,159.812 17.5,149.5C 22.5464,144.784 27.5464,140.117 32.5,135.5 Z M 186.5,135.5 C 192.429,139.924 197.929,144.924 203,150.5C 203.5,160.494 203.666,170.494 203.5,180.5C 197.833,180.5 192.167,180.5 186.5,180.5C 186.5,165.5 186.5,150.5 186.5,135.5 Z"/></g>
<g><path style="opacity:0.878" fill="#000000" d="M 74.5,22.5 C 80.1764,22.3339 85.8431,22.5006 91.5,23C 85.8333,28.6667 80.1667,34.3333 74.5,40C 69.1357,40.8295 63.8023,40.6628 58.5,39.5C 63.855,33.813 69.1883,28.1463 74.5,22.5 Z"/></g>
<g><path style="opacity:0.872" fill="#000000" d="M 99.5,22.5 C 105.176,22.3339 110.843,22.5006 116.5,23C 110.833,28.6667 105.167,34.3333 99.5,40C 94.1357,40.8295 88.8023,40.6628 83.5,39.5C 88.855,33.813 94.1883,28.1463 99.5,22.5 Z"/></g>
<g><path style="opacity:0.865" fill="#000000" d="M 122.5,22.5 C 128.176,22.3339 133.843,22.5006 139.5,23C 133.833,28.6667 128.167,34.3333 122.5,40C 117.136,40.8295 111.802,40.6628 106.5,39.5C 111.855,33.813 117.188,28.1463 122.5,22.5 Z"/></g>
<g><path style="opacity:0.861" fill="#000000" d="M 147.5,22.5 C 152.875,22.1718 158.208,22.5052 163.5,23.5C 158.348,29.152 153.015,34.652 147.5,40C 142.136,40.8295 136.802,40.6628 131.5,39.5C 136.855,33.813 142.188,28.1463 147.5,22.5 Z"/></g>
<g><path style="opacity:0.946" fill="#000000" d="M 84.5,137.5 C 93.4917,138.663 101.158,142.496 107.5,149C 110.03,150.422 112.697,150.755 115.5,150C 122.382,143.309 130.549,139.142 140,137.5C 149.667,139.143 158,143.476 165,150.5C 168.732,158.4 166.399,163.4 158,165.5C 151.992,162.153 145.992,158.82 140,155.5C 137.679,155.909 135.513,156.743 133.5,158C 125.56,166.647 115.893,169.647 104.5,167C 98.2949,164.121 92.6282,160.454 87.5,156C 84.6967,155.245 82.0301,155.578 79.5,157C 75.7829,160.385 71.7829,163.385 67.5,166C 56.9467,167.074 53.4467,162.574 57,152.5C 62.1667,148.667 67.3333,144.833 72.5,141C 76.5313,139.509 80.5313,138.343 84.5,137.5 Z"/></g>
<g><path style="opacity:0.943" fill="#000000" d="M 118.5,199.5 C 114.167,199.5 109.833,199.5 105.5,199.5C 99.7522,196.782 94.4189,193.282 89.5,189C 86.1667,187 82.8333,187 79.5,189C 75.3409,192.247 71.0076,195.247 66.5,198C 57.8365,199 54.3365,195.167 56,186.5C 63.0367,177.145 72.37,171.479 84,169.5C 86.8557,169.871 89.6891,170.371 92.5,171C 99.0384,174.894 105.538,178.728 112,182.5C 118.521,178.818 125.021,174.985 131.5,171C 137.942,168.929 144.275,169.262 150.5,172C 154.833,175 159.167,178 163.5,181C 166.803,184.795 167.303,188.962 165,193.5C 162.005,196.265 158.505,197.098 154.5,196C 150.89,194.056 147.557,191.723 144.5,189C 141.167,187 137.833,187 134.5,189C 129.581,193.282 124.248,196.782 118.5,199.5 Z"/></g>
</svg>
