<?xml version="1.0" encoding="UTF-8"?>
<!DOCTYPE svg PUBLIC "-//W3C//DTD SVG 1.1//EN" "http://www.w3.org/Graphics/SVG/1.1/DTD/svg11.dtd">
<svg xmlns="http://www.w3.org/2000/svg" version="1.1" width="144px" height="144px" style="shape-rendering:geometricPrecision; text-rendering:geometricPrecision; image-rendering:optimizeQuality; fill-rule:evenodd; clip-rule:evenodd" xmlns:xlink="http://www.w3.org/1999/xlink">
<g><path style="opacity:0.996" fill="#2a77f4" d="M 30.5,-0.5 C 52.8333,-0.5 75.1667,-0.5 97.5,-0.5C 96.6993,1.50837 95.366,2.00837 93.5,1C 94.6956,1.65431 94.6956,2.15431 93.5,2.5C 92.8076,1.97473 92.3076,1.30806 92,0.5C 91.082,2.63236 89.7487,3.29903 88,2.5C 87.0853,3.32791 86.4186,4.32791 86,5.5C 83.5215,6.44669 81.1882,6.44669 79,5.5C 78.0255,7.87759 77.3589,7.54426 77,4.5C 75.9292,8.0411 74.2626,8.70776 72,6.5C 69.9429,9.0135 67.6095,10.3468 65,10.5C 64.6667,9.83333 64.3333,9.16667 64,8.5C 62.6152,9.55054 61.6152,10.8839 61,12.5C 60.3741,10.0087 59.5407,10.0087 58.5,12.5C 57.8076,11.9747 57.3076,11.3081 57,10.5C 54.441,11.9799 51.7743,13.3133 49,14.5C 48.6667,13.8333 48.3333,13.1667 48,12.5C 46.1564,15.5987 43.6564,16.932 40.5,16.5C 40.1667,17.1667 39.8333,17.8333 39.5,18.5C 38.8076,17.9747 38.3076,17.3081 38,16.5C 36.4056,20.3498 33.5723,21.5165 29.5,20C 28.8742,20.7504 28.3742,21.5838 28,22.5C 27.6924,21.6919 27.1924,21.0253 26.5,20.5C 26.7036,21.5294 26.2036,22.5294 25,23.5C 24.6667,22.8333 24.3333,22.1667 24,21.5C 22.1394,22.7636 20.1394,23.7636 18,24.5C 16.9895,24.1081 16.4895,23.4415 16.5,22.5C 15.7492,23.376 15.2492,24.376 15,25.5C 14.6667,24.8333 14.3333,24.1667 14,23.5C 13.1667,24.5 12.3333,25.5 11.5,26.5C 11.1667,25.8333 10.8333,25.1667 10.5,24.5C 9.66667,25.5 8.83333,26.5 8,27.5C 5.34689,28.7461 2.84689,28.7461 0.5,27.5C 5.08753,12.2422 15.0875,2.90883 30.5,-0.5 Z"/></g>
<g><path style="opacity:0.995" fill="#2774f4" d="M 97.5,-0.5 C 102.5,-0.5 107.5,-0.5 112.5,-0.5C 123.59,1.9113 132.256,7.9113 138.5,17.5C 136.016,18.749 133.516,19.749 131,20.5C 130.586,20.0426 130.086,19.7093 129.5,19.5C 129.284,22.7491 127.784,23.0825 125,20.5C 123.863,21.364 122.53,22.364 121,23.5C 120.667,22.8333 120.333,22.1667 120,21.5C 119.215,23.249 118.382,24.9157 117.5,26.5C 115.99,25.1639 114.323,23.9973 112.5,23C 102.167,22.3333 91.8333,22.3333 81.5,23C 76.0526,25.8185 73.7192,30.3185 74.5,36.5C 72.9826,36.5106 71.8159,37.1772 71,38.5C 69.984,37.3659 69.3173,37.6992 69,39.5C 68.7216,38.5842 68.2216,37.9175 67.5,37.5C 67.8016,34.9407 67.4682,32.6074 66.5,30.5C 65.8566,27.0125 63.8566,24.5125 60.5,23C 50.1667,22.3333 39.8333,22.3333 29.5,23C 26.3333,24.1667 24.1667,26.3333 23,29.5C 22.5014,33.1516 22.3347,36.8183 22.5,40.5C 21.1984,41.8069 19.865,41.8069 18.5,40.5C 17.4593,42.9913 16.6259,42.9913 16,40.5C 13.7624,40.7884 11.929,42.1217 10.5,44.5C 9.80762,43.9747 9.30762,43.3081 9,42.5C 6.44101,43.9799 3.77434,45.3133 1,46.5C 0.721579,45.5842 0.221579,44.9175 -0.5,44.5C -0.5,39.8333 -0.5,35.1667 -0.5,30.5C 0.403972,29.791 0.737305,28.791 0.5,27.5C 2.84689,28.7461 5.34689,28.7461 8,27.5C 8.83333,26.5 9.66667,25.5 10.5,24.5C 10.8333,25.1667 11.1667,25.8333 11.5,26.5C 12.3333,25.5 13.1667,24.5 14,23.5C 14.3333,24.1667 14.6667,24.8333 15,25.5C 15.2492,24.376 15.7492,23.376 16.5,22.5C 16.4895,23.4415 16.9895,24.1081 18,24.5C 20.1394,23.7636 22.1394,22.7636 24,21.5C 24.3333,22.1667 24.6667,22.8333 25,23.5C 26.2036,22.5294 26.7036,21.5294 26.5,20.5C 27.1924,21.0253 27.6924,21.6919 28,22.5C 28.3742,21.5838 28.8742,20.7504 29.5,20C 33.5723,21.5165 36.4056,20.3498 38,16.5C 38.3076,17.3081 38.8076,17.9747 39.5,18.5C 39.8333,17.8333 40.1667,17.1667 40.5,16.5C 43.6564,16.932 46.1564,15.5987 48,12.5C 48.3333,13.1667 48.6667,13.8333 49,14.5C 51.7743,13.3133 54.441,11.9799 57,10.5C 57.3076,11.3081 57.8076,11.9747 58.5,12.5C 59.5407,10.0087 60.3741,10.0087 61,12.5C 61.6152,10.8839 62.6152,9.55054 64,8.5C 64.3333,9.16667 64.6667,9.83333 65,10.5C 67.6095,10.3468 69.9429,9.0135 72,6.5C 74.2626,8.70776 75.9292,8.0411 77,4.5C 77.3589,7.54426 78.0255,7.87759 79,5.5C 81.1882,6.44669 83.5215,6.44669 86,5.5C 86.4186,4.32791 87.0853,3.32791 88,2.5C 89.7487,3.29903 91.082,2.63236 92,0.5C 92.3076,1.30806 92.8076,1.97473 93.5,2.5C 94.6956,2.15431 94.6956,1.65431 93.5,1C 95.366,2.00837 96.6993,1.50837 97.5,-0.5 Z"/></g>
<g><path style="opacity:1" fill="#dde9fd" d="M 117.5,26.5 C 117.5,26.8333 117.5,27.1667 117.5,27.5C 117.189,28.4778 116.522,29.1445 115.5,29.5C 113.618,28.9067 111.785,28.2401 110,27.5C 106.333,28.1667 102.667,28.8333 99,29.5C 93.9501,28.8053 89.2834,30.1386 85,33.5C 79.7271,44.2313 78.5605,54.7313 81.5,65C 81.2716,65.3988 80.9382,65.5654 80.5,65.5C 80.1667,65.5 79.8333,65.5 79.5,65.5C 77.4383,63.5899 75.9383,61.2565 75,58.5C 74.5003,51.1742 74.3337,43.8409 74.5,36.5C 73.7192,30.3185 76.0526,25.8185 81.5,23C 91.8333,22.3333 102.167,22.3333 112.5,23C 114.323,23.9973 115.99,25.1639 117.5,26.5 Z"/></g>
<g><path style="opacity:1" fill="#e6effd" d="M 66.5,30.5 C 66.665,33.8499 66.4983,37.1832 66,40.5C 65.8184,37.7737 65.3184,35.1071 64.5,32.5C 62.9411,31.9264 61.4411,31.2598 60,30.5C 52.2008,32.4795 44.7008,34.3129 37.5,36C 33.963,40.5446 31.7964,45.3779 31,50.5C 30.5879,54.3458 30.0879,57.8458 29.5,61C 30.1667,62.3333 30.8333,63.6667 31.5,65C 40.676,65.1703 49.676,65.6703 58.5,66.5C 48.5,66.5 38.5,66.5 28.5,66.5C 25.8001,64.954 23.9668,62.6206 23,59.5C 22.5005,53.1754 22.3338,46.8421 22.5,40.5C 22.3347,36.8183 22.5014,33.1516 23,29.5C 24.1667,26.3333 26.3333,24.1667 29.5,23C 39.8333,22.3333 50.1667,22.3333 60.5,23C 63.8566,24.5125 65.8566,27.0125 66.5,30.5 Z"/></g>
<g><path style="opacity:1" fill="#d2e2fd" d="M 117.5,27.5 C 118.404,28.209 118.737,29.209 118.5,30.5C 118.666,35.1785 118.499,39.8452 118,44.5C 119.106,38.0155 116.439,34.6822 110,34.5C 107.5,35 105,35.5 102.5,36C 98.4451,38.6013 94.9451,41.7679 92,45.5C 91.3333,44.1667 90.6667,44.1667 90,45.5C 88.6274,48.4125 87.1274,51.2458 85.5,54C 85.5451,56.6365 85.7118,59.4698 86,62.5C 86.3742,63.4162 86.8742,64.2496 87.5,65C 91.3563,65.1773 95.023,65.6773 98.5,66.5C 92.31,66.8229 86.31,66.4896 80.5,65.5C 80.9382,65.5654 81.2716,65.3988 81.5,65C 78.5605,54.7313 79.7271,44.2313 85,33.5C 89.2834,30.1386 93.9501,28.8053 99,29.5C 102.667,28.8333 106.333,28.1667 110,27.5C 111.785,28.2401 113.618,28.9067 115.5,29.5C 116.522,29.1445 117.189,28.4778 117.5,27.5 Z"/></g>
<g><path style="opacity:0.988" fill="#1f6cf5" d="M 138.5,17.5 C 140.783,21.6962 142.45,26.0295 143.5,30.5C 143.5,35.8333 143.5,41.1667 143.5,46.5C 141.983,46.5106 140.816,47.1772 140,48.5C 138.691,46.1088 137.691,46.1088 137,48.5C 136.692,47.6919 136.192,47.0253 135.5,46.5C 134.304,46.8457 134.304,47.3457 135.5,48C 133.238,48.6419 131.071,49.4752 129,50.5C 127.16,49.1669 126.66,49.3335 127.5,51C 126.551,51.6172 125.718,51.4506 125,50.5C 124.374,52.9913 123.541,52.9913 122.5,50.5C 122.167,51.1667 121.833,51.8333 121.5,52.5C 120.818,51.7573 120.151,51.0906 119.5,50.5C 119.824,43.6457 119.491,36.979 118.5,30.5C 118.737,29.209 118.404,28.209 117.5,27.5C 117.5,27.1667 117.5,26.8333 117.5,26.5C 118.382,24.9157 119.215,23.249 120,21.5C 120.333,22.1667 120.667,22.8333 121,23.5C 122.53,22.364 123.863,21.364 125,20.5C 127.784,23.0825 129.284,22.7491 129.5,19.5C 130.086,19.7093 130.586,20.0426 131,20.5C 133.516,19.749 136.016,18.749 138.5,17.5 Z"/></g>
<g><path style="opacity:1" fill="#c7dbfc" d="M 118.5,30.5 C 119.491,36.979 119.824,43.6457 119.5,50.5C 119.611,64.6483 112.611,69.9816 98.5,66.5C 95.023,65.6773 91.3563,65.1773 87.5,65C 86.8742,64.2496 86.3742,63.4162 86,62.5C 85.7118,59.4698 85.5451,56.6365 85.5,54C 87.1274,51.2458 88.6274,48.4125 90,45.5C 90.6667,44.1667 91.3333,44.1667 92,45.5C 94.9451,41.7679 98.4451,38.6013 102.5,36C 105,35.5 107.5,35 110,34.5C 116.439,34.6822 119.106,38.0155 118,44.5C 118.499,39.8452 118.666,35.1785 118.5,30.5 Z"/></g>
<g><path style="opacity:1" fill="#d7e5fd" d="M 66.5,30.5 C 67.4682,32.6074 67.8016,34.9407 67.5,37.5C 67.8633,45.5705 67.3633,53.5705 66,61.5C 64.1433,64.1998 61.6433,65.8665 58.5,66.5C 49.676,65.6703 40.676,65.1703 31.5,65C 30.8333,63.6667 30.1667,62.3333 29.5,61C 30.0879,57.8458 30.5879,54.3458 31,50.5C 31.7964,45.3779 33.963,40.5446 37.5,36C 44.7008,34.3129 52.2008,32.4795 60,30.5C 61.4411,31.2598 62.9411,31.9264 64.5,32.5C 65.3184,35.1071 65.8184,37.7737 66,40.5C 66.4983,37.1832 66.665,33.8499 66.5,30.5 Z"/></g>
<g><path style="opacity:1" fill="#1d69f5" d="M 143.5,46.5 C 143.5,57.8333 143.5,69.1667 143.5,80.5C 142.504,80.5858 141.671,80.2524 141,79.5C 137.686,81.9648 134.353,83.6315 131,84.5C 129.467,84.0563 127.967,83.723 126.5,83.5C 125.201,84.09 124.368,85.09 124,86.5C 123.692,85.6919 123.192,85.0253 122.5,84.5C 122.704,85.5294 122.204,86.5294 121,87.5C 120.667,86.8333 120.333,86.1667 120,85.5C 119.829,93.6772 119.329,101.677 118.5,109.5C 118.666,99.8276 118.5,90.1609 118,80.5C 117.215,78.714 116.049,77.214 114.5,76C 103.598,74.3796 92.598,74.0463 81.5,75C 77.5856,76.9931 75.2523,80.1597 74.5,84.5C 72.0148,84.3916 69.6814,84.7249 67.5,85.5C 67.7373,84.209 67.404,83.209 66.5,82.5C 66.6716,81.5084 66.3382,80.8417 65.5,80.5C 65.1412,78.629 64.1412,77.129 62.5,76C 58.2695,74.7101 53.9362,74.2101 49.5,74.5C 50.3919,71.8872 52.0586,71.2205 54.5,72.5C 55.2508,71.624 55.7508,70.624 56,69.5C 56.3333,70.1667 56.6667,70.8333 57,71.5C 58.5298,70.364 59.8631,69.364 61,68.5C 61.414,68.9574 61.914,69.2907 62.5,69.5C 64.8911,68.3058 67.2244,67.3058 69.5,66.5C 70.086,66.7093 70.586,67.0426 71,67.5C 72.7175,66.5448 74.3842,65.5448 76,64.5C 76.704,66.727 77.8706,67.0603 79.5,65.5C 79.8333,65.5 80.1667,65.5 80.5,65.5C 86.31,66.4896 92.31,66.8229 98.5,66.5C 112.611,69.9816 119.611,64.6483 119.5,50.5C 120.151,51.0906 120.818,51.7573 121.5,52.5C 121.833,51.8333 122.167,51.1667 122.5,50.5C 123.541,52.9913 124.374,52.9913 125,50.5C 125.718,51.4506 126.551,51.6172 127.5,51C 126.66,49.3335 127.16,49.1669 129,50.5C 131.071,49.4752 133.238,48.6419 135.5,48C 134.304,47.3457 134.304,46.8457 135.5,46.5C 136.192,47.0253 136.692,47.6919 137,48.5C 137.691,46.1088 138.691,46.1088 140,48.5C 140.816,47.1772 141.983,46.5106 143.5,46.5 Z"/></g>
<g><path style="opacity:1" fill="#226ff4" d="M 22.5,40.5 C 22.3338,46.8421 22.5005,53.1754 23,59.5C 23.9668,62.6206 25.8001,64.954 28.5,66.5C 25.2993,64.8124 23.1326,65.8124 22,69.5C 20.1267,70.0891 18.46,69.4224 17,67.5C 15.6152,68.5505 14.6152,69.8839 14,71.5C 12.6015,70.9491 11.2682,70.6158 10,70.5C 7.71859,72.5888 5.21859,73.2554 2.5,72.5C 1.80762,73.0253 1.30762,73.6919 1,74.5C 0.721579,73.5842 0.221579,72.9175 -0.5,72.5C -0.5,63.1667 -0.5,53.8333 -0.5,44.5C 0.221579,44.9175 0.721579,45.5842 1,46.5C 3.77434,45.3133 6.44101,43.9799 9,42.5C 9.30762,43.3081 9.80762,43.9747 10.5,44.5C 11.929,42.1217 13.7624,40.7884 16,40.5C 16.6259,42.9913 17.4593,42.9913 18.5,40.5C 19.865,41.8069 21.1984,41.8069 22.5,40.5 Z"/></g>
<g><path style="opacity:1" fill="#216df5" d="M 74.5,36.5 C 74.3337,43.8409 74.5003,51.1742 75,58.5C 75.9383,61.2565 77.4383,63.5899 79.5,65.5C 77.8706,67.0603 76.704,66.727 76,64.5C 74.3842,65.5448 72.7175,66.5448 71,67.5C 70.586,67.0426 70.086,66.7093 69.5,66.5C 67.2244,67.3058 64.8911,68.3058 62.5,69.5C 61.914,69.2907 61.414,68.9574 61,68.5C 59.8631,69.364 58.5298,70.364 57,71.5C 56.6667,70.8333 56.3333,70.1667 56,69.5C 55.7508,70.624 55.2508,71.624 54.5,72.5C 52.0586,71.2205 50.3919,71.8872 49.5,74.5C 42.825,74.3337 36.1583,74.5004 29.5,75C 26.6424,76.6941 24.309,78.8607 22.5,81.5C 22.44,80.9569 22.1067,80.6236 21.5,80.5C 20.2054,81.0983 18.8721,81.5983 17.5,82C 18.6956,82.6543 18.6956,83.1543 17.5,83.5C 16.8333,82.8333 16.1667,82.1667 15.5,81.5C 15.1667,82.1667 14.8333,82.8333 14.5,83.5C 13.914,83.2907 13.414,82.9574 13,82.5C 12.6667,83.8333 12.3333,85.1667 12,86.5C 10.4506,83.9974 8.78392,83.9974 7,86.5C 5.98398,85.3659 5.31732,85.6992 5,87.5C 4.69238,86.6919 4.19238,86.0253 3.5,85.5C 2.26381,86.2458 0.930472,86.5792 -0.5,86.5C -0.5,81.8333 -0.5,77.1667 -0.5,72.5C 0.221579,72.9175 0.721579,73.5842 1,74.5C 1.30762,73.6919 1.80762,73.0253 2.5,72.5C 5.21859,73.2554 7.71859,72.5888 10,70.5C 11.2682,70.6158 12.6015,70.9491 14,71.5C 14.6152,69.8839 15.6152,68.5505 17,67.5C 18.46,69.4224 20.1267,70.0891 22,69.5C 23.1326,65.8124 25.2993,64.8124 28.5,66.5C 38.5,66.5 48.5,66.5 58.5,66.5C 61.6433,65.8665 64.1433,64.1998 66,61.5C 67.3633,53.5705 67.8633,45.5705 67.5,37.5C 68.2216,37.9175 68.7216,38.5842 69,39.5C 69.3173,37.6992 69.984,37.3659 71,38.5C 71.8159,37.1772 72.9826,36.5106 74.5,36.5 Z"/></g>
<g><path style="opacity:1" fill="#dae7fd" d="M 49.5,74.5 C 53.9362,74.2101 58.2695,74.7101 62.5,76C 64.1412,77.129 65.1412,78.629 65.5,80.5C 65.631,81.2389 65.4643,81.9056 65,82.5C 63.3333,81.8333 61.6667,81.1667 60,80.5C 55.1212,81.1187 49.9545,81.6187 44.5,82C 38.3556,82.4755 33.8556,85.3089 31,90.5C 30.3333,93.8333 29.6667,97.1667 29,100.5C 28.6285,106.407 28.4618,112.074 28.5,117.5C 26.7697,116.974 25.4363,115.974 24.5,114.5C 24.0133,113.527 23.5133,112.527 23,111.5C 22.5002,101.506 22.3335,91.5056 22.5,81.5C 24.309,78.8607 26.6424,76.6941 29.5,75C 36.1583,74.5004 42.825,74.3337 49.5,74.5 Z"/></g>
<g><path style="opacity:1" fill="#ccddfd" d="M 65.5,80.5 C 66.3382,80.8417 66.6716,81.5084 66.5,82.5C 66.6662,88.5092 66.4995,94.5092 66,100.5C 65.7744,97.905 65.2744,95.405 64.5,93C 64.8333,92.6667 65.1667,92.3333 65.5,92C 64.3534,89.8222 62.6868,88.3222 60.5,87.5C 56.1094,89.1126 51.9428,91.1126 48,93.5C 47.6667,93.1667 47.3333,92.8333 47,92.5C 46.7508,93.624 46.2508,94.624 45.5,95.5C 42.2494,98.4293 39.0827,100.763 36,102.5C 35.5757,104.515 34.7424,106.349 33.5,108C 34.6953,109.533 34.6953,111.033 33.5,112.5C 34.1667,113.833 34.8333,115.167 35.5,116.5C 39.3125,117.167 42.9792,117.834 46.5,118.5C 40.31,118.823 34.31,118.49 28.5,117.5C 28.4618,112.074 28.6285,106.407 29,100.5C 29.6667,97.1667 30.3333,93.8333 31,90.5C 33.8556,85.3089 38.3556,82.4755 44.5,82C 49.9545,81.6187 55.1212,81.1187 60,80.5C 61.6667,81.1667 63.3333,81.8333 65,82.5C 65.4643,81.9056 65.631,81.2389 65.5,80.5 Z"/></g>
<g><path style="opacity:1" fill="#c1d5fc" d="M 66.5,82.5 C 67.404,83.209 67.7373,84.209 67.5,85.5C 67.8863,94.9005 67.3863,104.234 66,113.5C 64.4571,115.378 62.6238,116.878 60.5,118C 55.8452,118.499 51.1785,118.666 46.5,118.5C 42.9792,117.834 39.3125,117.167 35.5,116.5C 34.8333,115.167 34.1667,113.833 33.5,112.5C 34.6953,111.033 34.6953,109.533 33.5,108C 34.7424,106.349 35.5757,104.515 36,102.5C 39.0827,100.763 42.2494,98.4293 45.5,95.5C 46.2508,94.624 46.7508,93.624 47,92.5C 47.3333,92.8333 47.6667,93.1667 48,93.5C 51.9428,91.1126 56.1094,89.1126 60.5,87.5C 62.6868,88.3222 64.3534,89.8222 65.5,92C 65.1667,92.3333 64.8333,92.6667 64.5,93C 65.2744,95.405 65.7744,97.905 66,100.5C 66.4995,94.5092 66.6662,88.5092 66.5,82.5 Z"/></g>
<g><path style="opacity:0.996" fill="#1260f6" d="M 143.5,80.5 C 143.5,91.1667 143.5,101.833 143.5,112.5C 143.167,112.5 142.833,112.5 142.5,112.5C 142.291,111.078 141.791,109.745 141,108.5C 140.333,111.167 139.667,111.167 139,108.5C 138.492,110.904 137.325,111.571 135.5,110.5C 134.304,110.846 134.304,111.346 135.5,112C 133.314,113.309 131.147,113.476 129,112.5C 126.929,113.364 125.262,114.697 124,116.5C 123.692,115.692 123.192,115.025 122.5,114.5C 122.167,115.167 121.833,115.833 121.5,116.5C 120.808,115.975 120.308,115.308 120,114.5C 119.581,115.672 118.915,116.672 118,117.5C 117.014,116.829 115.847,116.829 114.5,117.5C 115.458,116.038 116.624,114.705 118,113.5C 118.49,112.207 118.657,110.873 118.5,109.5C 119.329,101.677 119.829,93.6772 120,85.5C 120.333,86.1667 120.667,86.8333 121,87.5C 122.204,86.5294 122.704,85.5294 122.5,84.5C 123.192,85.0253 123.692,85.6919 124,86.5C 124.368,85.09 125.201,84.09 126.5,83.5C 127.967,83.723 129.467,84.0563 131,84.5C 134.353,83.6315 137.686,81.9648 141,79.5C 141.671,80.2524 142.504,80.5858 143.5,80.5 Z"/></g>
<g><path style="opacity:1" fill="#88affa" d="M 118.5,109.5 C 118.657,110.873 118.49,112.207 118,113.5C 116.624,114.705 115.458,116.038 114.5,117.5C 112.883,118.038 111.216,118.371 109.5,118.5C 99.8276,118.666 90.1609,118.5 80.5,118C 77.4121,115.924 75.5788,113.091 75,109.5C 74.5003,101.173 74.3336,92.84 74.5,84.5C 75.2523,80.1597 77.5856,76.9931 81.5,75C 92.598,74.0463 103.598,74.3796 114.5,76C 116.049,77.214 117.215,78.714 118,80.5C 118.5,90.1609 118.666,99.8276 118.5,109.5 Z"/></g>
<g><path style="opacity:0.988" fill="#1866f5" d="M 22.5,81.5 C 22.3335,91.5056 22.5002,101.506 23,111.5C 23.5133,112.527 24.0133,113.527 24.5,114.5C 23.5272,115.791 22.5272,115.791 21.5,114.5C 20.2954,116.138 18.9621,116.471 17.5,115.5C 15.8035,116.364 14.6368,117.697 14,119.5C 13.6667,118.5 13.3333,117.5 13,116.5C 11.8631,117.364 10.5298,118.364 9,119.5C 8.66667,118.833 8.33333,118.167 8,117.5C 7.22158,120.803 5.38824,121.803 2.5,120.5C 1.25133,117.913 0.251327,115.246 -0.5,112.5C -0.5,103.833 -0.5,95.1667 -0.5,86.5C 0.930472,86.5792 2.26381,86.2458 3.5,85.5C 4.19238,86.0253 4.69238,86.6919 5,87.5C 5.31732,85.6992 5.98398,85.3659 7,86.5C 8.78392,83.9974 10.4506,83.9974 12,86.5C 12.3333,85.1667 12.6667,83.8333 13,82.5C 13.414,82.9574 13.914,83.2907 14.5,83.5C 14.8333,82.8333 15.1667,82.1667 15.5,81.5C 16.1667,82.1667 16.8333,82.8333 17.5,83.5C 18.6956,83.1543 18.6956,82.6543 17.5,82C 18.8721,81.5983 20.2054,81.0983 21.5,80.5C 22.1067,80.6236 22.44,80.9569 22.5,81.5 Z"/></g>
<g><path style="opacity:0.992" fill="#1561f6" d="M 74.5,84.5 C 74.3336,92.84 74.5003,101.173 75,109.5C 75.5788,113.091 77.4121,115.924 80.5,118C 90.1609,118.5 99.8276,118.666 109.5,118.5C 106.695,119.319 103.695,119.819 100.5,120C 100.833,120.333 101.167,120.667 101.5,121C 99.3551,122.954 97.1885,124.121 95,124.5C 94.3333,123.167 93.6667,123.167 93,124.5C 92.6667,123.833 92.3333,123.167 92,122.5C 90.1061,125.392 87.4394,127.059 84,127.5C 83.1667,125 82,124.833 80.5,127C 80.8333,127.333 81.1667,127.667 81.5,128C 77.5456,127.2 74.0456,128.366 71,131.5C 68.2392,132.64 65.4059,132.64 62.5,131.5C 61.2011,132.09 60.3678,133.09 60,134.5C 59.6924,133.692 59.1924,133.025 58.5,132.5C 58.7036,133.529 58.2036,134.529 57,135.5C 56.6667,134.833 56.3333,134.167 56,133.5C 55.6851,136.147 54.5184,136.813 52.5,135.5C 50.8662,135.968 49.6995,136.968 49,138.5C 48.3086,136.109 47.3086,136.109 46,138.5C 45.6667,137.833 45.3333,137.167 45,136.5C 44.5,137.667 43.6667,138.5 42.5,139C 42.8333,139.333 43.1667,139.667 43.5,140C 42.2559,140.456 41.4226,139.956 41,138.5C 37.8962,139.803 35.0629,141.47 32.5,143.5C 31.8333,143.5 31.1667,143.5 30.5,143.5C 16.9879,140.994 7.65461,133.327 2.5,120.5C 5.38824,121.803 7.22158,120.803 8,117.5C 8.33333,118.167 8.66667,118.833 9,119.5C 10.5298,118.364 11.8631,117.364 13,116.5C 13.3333,117.5 13.6667,118.5 14,119.5C 14.6368,117.697 15.8035,116.364 17.5,115.5C 18.9621,116.471 20.2954,116.138 21.5,114.5C 22.5272,115.791 23.5272,115.791 24.5,114.5C 25.4363,115.974 26.7697,116.974 28.5,117.5C 34.31,118.49 40.31,118.823 46.5,118.5C 51.1785,118.666 55.8452,118.499 60.5,118C 62.6238,116.878 64.4571,115.378 66,113.5C 67.3863,104.234 67.8863,94.9005 67.5,85.5C 69.6814,84.7249 72.0148,84.3916 74.5,84.5 Z"/></g>
<g><path style="opacity:0.975" fill="#0c5bf6" d="M 142.5,112.5 C 139.257,129.41 129.257,139.743 112.5,143.5C 85.8333,143.5 59.1667,143.5 32.5,143.5C 35.0629,141.47 37.8962,139.803 41,138.5C 41.4226,139.956 42.2559,140.456 43.5,140C 43.1667,139.667 42.8333,139.333 42.5,139C 43.6667,138.5 44.5,137.667 45,136.5C 45.3333,137.167 45.6667,137.833 46,138.5C 47.3086,136.109 48.3086,136.109 49,138.5C 49.6995,136.968 50.8662,135.968 52.5,135.5C 54.5184,136.813 55.6851,136.147 56,133.5C 56.3333,134.167 56.6667,134.833 57,135.5C 58.2036,134.529 58.7036,133.529 58.5,132.5C 59.1924,133.025 59.6924,133.692 60,134.5C 60.3678,133.09 61.2011,132.09 62.5,131.5C 65.4059,132.64 68.2392,132.64 71,131.5C 74.0456,128.366 77.5456,127.2 81.5,128C 81.1667,127.667 80.8333,127.333 80.5,127C 82,124.833 83.1667,125 84,127.5C 87.4394,127.059 90.1061,125.392 92,122.5C 92.3333,123.167 92.6667,123.833 93,124.5C 93.6667,123.167 94.3333,123.167 95,124.5C 97.1885,124.121 99.3551,122.954 101.5,121C 101.167,120.667 100.833,120.333 100.5,120C 103.695,119.819 106.695,119.319 109.5,118.5C 111.216,118.371 112.883,118.038 114.5,117.5C 115.847,116.829 117.014,116.829 118,117.5C 118.915,116.672 119.581,115.672 120,114.5C 120.308,115.308 120.808,115.975 121.5,116.5C 121.833,115.833 122.167,115.167 122.5,114.5C 123.192,115.025 123.692,115.692 124,116.5C 125.262,114.697 126.929,113.364 129,112.5C 131.147,113.476 133.314,113.309 135.5,112C 134.304,111.346 134.304,110.846 135.5,110.5C 137.325,111.571 138.492,110.904 139,108.5C 139.667,111.167 140.333,111.167 141,108.5C 141.791,109.745 142.291,111.078 142.5,112.5 Z"/></g>
</svg>
