<?xml version="1.0" encoding="UTF-8"?>
<!DOCTYPE svg PUBLIC "-//W3C//DTD SVG 1.1//EN" "http://www.w3.org/Graphics/SVG/1.1/DTD/svg11.dtd">
<svg xmlns="http://www.w3.org/2000/svg" version="1.1" width="24px" height="24px" style="shape-rendering:geometricPrecision; text-rendering:geometricPrecision; image-rendering:optimizeQuality; fill-rule:evenodd; clip-rule:evenodd" xmlns:xlink="http://www.w3.org/1999/xlink">
<g><path style="opacity:0.667" fill="#7f807f" d="M 8.5,11.5 C 3.85427,4.29482 5.85427,0.794815 14.5,1C 17.5452,3.44768 18.0452,6.28102 16,9.5C 13.7724,11.1134 11.2724,11.78 8.5,11.5 Z M 9.5,2.5 C 13.9346,2.75208 15.268,4.91875 13.5,9C 12.1011,9.59456 10.7678,9.42789 9.5,8.5C 8.30577,6.48436 8.30577,4.48436 9.5,2.5 Z"/></g>
<g><path style="opacity:0.732" fill="#7f7f7f" d="M 8.5,11.5 C 10.6244,15.3171 12.9577,15.3171 15.5,11.5C 16.5,12 17.5,12.5 18.5,13C 19.845,15.8995 21.5117,18.3995 23.5,20.5C 23.5,21.1667 23.5,21.8333 23.5,22.5C 15.5,22.5 7.5,22.5 -0.5,22.5C -0.5,21.8333 -0.5,21.1667 -0.5,20.5C 1.44602,18.6473 2.94602,16.314 4,13.5C 5.32972,12.4178 6.82972,11.7512 8.5,11.5 Z M 15.5,13.5 C 17.3056,15.0894 18.6389,17.0894 19.5,19.5C 14.2079,20.4948 8.8746,20.8282 3.5,20.5C 4.39079,14.2207 7.05746,13.2207 11.5,17.5C 13.188,16.4787 14.5213,15.1454 15.5,13.5 Z"/></g>
</svg>
