<?xml version="1.0" encoding="UTF-8"?>
<!DOCTYPE svg PUBLIC "-//W3C//DTD SVG 1.1//EN" "http://www.w3.org/Graphics/SVG/1.1/DTD/svg11.dtd">
<svg xmlns="http://www.w3.org/2000/svg" version="1.1" width="24px" height="24px" style="shape-rendering:geometricPrecision; text-rendering:geometricPrecision; image-rendering:optimizeQuality; fill-rule:evenodd; clip-rule:evenodd" xmlns:xlink="http://www.w3.org/1999/xlink">
<g><path style="opacity:0.757" fill="#7f807f" d="M 2.5,1.5 C 8.75757,1.19031 14.9242,1.52364 21,2.5C 21.8087,8.74889 21.642,14.9156 20.5,21C 14.2511,21.8087 8.08445,21.642 2,20.5C 1.20983,14.0853 1.37649,7.75199 2.5,1.5 Z M 3.5,3.5 C 8.83333,3.5 14.1667,3.5 19.5,3.5C 19.5,4.83333 19.5,6.16667 19.5,7.5C 14.1667,7.5 8.83333,7.5 3.5,7.5C 3.5,6.16667 3.5,4.83333 3.5,3.5 Z M 3.5,9.5 C 8.83333,9.5 14.1667,9.5 19.5,9.5C 19.5,12.8333 19.5,16.1667 19.5,19.5C 14.1667,19.5 8.83333,19.5 3.5,19.5C 3.5,16.1667 3.5,12.8333 3.5,9.5 Z"/></g>
<g><path style="opacity:0.806" fill="#7f807f" d="M 4.5,4.5 C 6.33702,4.63945 6.67036,5.30612 5.5,6.5C 4.70245,6.04311 4.36912,5.37644 4.5,4.5 Z"/></g>
<g><path style="opacity:0.806" fill="#7f807f" d="M 7.5,4.5 C 9.33702,4.63945 9.67036,5.30612 8.5,6.5C 7.70245,6.04311 7.36912,5.37644 7.5,4.5 Z"/></g>
<g><path style="opacity:0.806" fill="#7f807f" d="M 10.5,4.5 C 12.337,4.63945 12.6704,5.30612 11.5,6.5C 10.7025,6.04311 10.3691,5.37644 10.5,4.5 Z"/></g>
</svg>
